<svg width="90" height="90" viewBox="0 0 90 90" fill="none" xmlns="http://www.w3.org/2000/svg">
<path d="M84 45C84 67.0914 66.0914 85 44 85C21.9086 85 4 67.0914 4 45C4 22.9086 21.9086 5 44 5C66.0914 5 84 22.9086 84 45Z" fill="#0052B5"/>
<path d="M34 27V6.26017C35.6288 5.84094 37.2978 5.52173 39 5.30947C40.638 5.10522 42.3067 5 44 5C45.6933 5 47.362 5.10522 49 5.30947C50.7022 5.52173 52.3712 5.84094 54 6.26017V32.5L71 15.487C72.8325 17.1644 75.5054 20.5102 77 22.5L64 35H82.7398C83.159 36.6288 83.4783 38.2978 83.6905 40C83.8948 41.638 84 43.3067 84 45C84 46.6933 83.8948 48.362 83.6905 50C83.4783 51.7022 83.159 53.3712 82.7398 55H61L76.0029 69C73.8528 71.8626 71.3274 74.4273 68.5 76.6212L54 62V83.7398C52.3712 84.159 50.7022 84.4783 49 84.6905C47.362 84.8948 45.6933 85 44 85C42.3067 85 40.638 84.8948 39 84.6905C37.2978 84.4783 35.6288 84.159 34 83.7398L34 58L17.5 74.9631C15.2623 72.9825 13.2481 70.7552 11.5 68.3236L26 55H5.26017C4.84095 53.3712 4.52173 51.7022 4.30947 50C4.10522 48.362 4 46.6933 4 45C4 43.3067 4.10522 41.638 4.30947 40C4.52173 38.2978 4.84094 36.6288 5.26017 35H26.5L12 20.9961C14.2193 18.0422 16.8381 15.4056 19.7761 13.1664L34 27Z" fill="white"/>
<path d="M34 35L15.7449 16.6866C14.7796 17.6499 13.8633 18.6622 13 19.7196L29 35H34Z" fill="#D90026"/>
<path d="M54 35L72.2551 16.6866C73.2204 17.6499 74.1367 18.6622 75 19.7196L59 35H54Z" fill="#D90026"/>
<path d="M54 55.3433L72.2551 73.6567C73.2204 72.6934 74.1367 71.6811 75 70.6237L59 55.3433H54Z" fill="#D90026"/>
<path d="M34 55.3433L15.7449 73.6567C14.7796 72.6934 13.8633 71.6811 13 70.6237L29 55.3433H34Z" fill="#D90026"/>
<path d="M4.30947 40C4.10522 41.638 4 43.3067 4 45C4 46.6933 4.10522 48.362 4.30947 50H39V84.6905C40.638 84.8948 42.3067 85 44 85C45.6933 85 47.362 84.8948 49 84.6905V50H83.6905C83.8948 48.362 84 46.6933 84 45C84 43.3067 83.8948 41.638 83.6905 40H49V5.30947C47.0428 5.01507 46.0392 5 44 5C42.3067 5 40.638 5.10522 39 5.30947V40H4.30947Z" fill="#D90026"/>
</svg>
